<svg version="1.1" id="Layer_1" xmlns="http://www.w3.org/2000/svg" xmlns:xlink="http://www.w3.org/1999/xlink" x="0px" y="0px"
	 width="100%" viewBox="0 0 288 286" enable-background="new 0 0 288 286" xml:space="preserve">
<path fill="#FEFEFE" opacity="1.000000" stroke="none" 
	d="
M169.000000,287.000000 
	C112.666672,287.000000 56.833347,287.000000 1.000015,287.000000 
	C1.000010,191.666687 1.000010,96.333366 1.000005,1.000041 
	C96.999969,1.000027 192.999939,1.000027 288.999939,1.000014 
	C288.999939,96.333290 288.999939,191.666580 288.999969,286.999939 
	C249.166672,287.000000 209.333328,287.000000 169.000000,287.000000 
M250.771576,176.098770 
	C235.422974,216.503571 206.835434,240.922165 163.984497,248.433563 
	C159.169296,249.277634 158.652298,247.638962 158.673386,243.697433 
	C158.781235,223.534958 158.714127,203.371597 158.742386,183.208588 
	C158.744308,181.842636 159.026779,180.477081 159.267899,178.310471 
	C171.315323,185.257645 182.601700,191.765945 195.323914,199.102249 
	C188.375565,202.870331 182.564697,205.960876 176.825027,209.178436 
	C175.456497,209.945633 173.310898,211.081345 173.252701,212.142426 
	C172.912155,218.351044 173.085602,224.587860 173.085602,230.788895 
	C174.355316,230.892456 174.887253,231.079910 175.326233,230.950958 
	C195.546646,225.010284 211.675354,213.300491 224.114105,196.363235 
	C225.867264,193.976028 224.650177,192.895752 222.627670,191.737274 
	C203.268738,180.648529 184.044220,169.319687 164.551483,158.472366 
	C154.661469,152.968735 143.944016,152.305634 133.896744,157.827087 
	C113.765533,168.890091 93.959167,180.543625 73.991333,191.905258 
	C71.647850,193.238693 71.411690,194.675018 73.089684,196.672241 
	C75.766716,199.858612 78.471443,203.026184 81.026642,206.308975 
	C83.019539,208.869339 84.787582,209.013977 87.701233,207.286545 
	C102.164513,198.711456 116.796661,190.421021 131.378403,182.046112 
	C133.337296,180.921051 135.347733,179.885773 137.862930,178.522369 
	C137.862930,190.809021 137.862930,202.282257 137.862930,215.030197 
	C130.657745,212.572617 124.290802,210.327820 117.867805,208.256912 
	C116.055931,207.672714 113.652061,206.740494 112.253540,207.438400 
	C106.357750,210.380600 100.739349,213.878677 94.420715,217.518280 
	C96.380409,218.953644 97.636276,219.983734 98.995682,220.851669 
	C109.522919,227.572845 120.981003,232.017044 133.319199,233.729843 
	C137.595795,234.323502 138.459808,236.135437 138.379135,239.889923 
	C138.200180,248.217880 138.408478,256.553619 138.286331,264.883636 
	C138.236618,268.273651 139.596359,269.877533 142.979446,269.739624 
	C148.297302,269.522827 153.625916,269.451813 158.931122,269.062439 
	C181.882797,267.377777 203.060425,260.120605 221.565765,246.582901 
	C263.610931,215.824539 280.939453,174.040771 274.783051,122.501274 
	C273.913696,115.223213 271.625122,108.114685 269.824829,100.185150 
	C263.616302,103.692368 258.469238,106.361145 253.646622,109.524513 
	C252.675034,110.161804 252.336166,112.828880 252.715363,114.299805 
	C258.008545,134.832504 257.468597,155.155777 250.771576,176.098770 
M70.457909,243.055222 
	C86.250359,255.191498 104.036583,262.806030 124.107063,267.241119 
	C124.107063,262.018768 123.765755,257.519043 124.198441,253.095001 
	C124.677162,248.200241 122.855232,246.202240 118.097702,244.887207 
	C57.832527,228.229202 24.643768,159.883575 48.307407,101.787560 
	C49.943680,97.770393 51.486706,97.218094 55.180077,99.385651 
	C72.984459,109.834610 90.919273,120.061234 108.787300,130.402161 
	C109.689751,130.924454 110.401390,131.776459 111.720337,132.927353 
	C99.786369,139.774628 88.393562,146.311417 75.953621,153.449020 
	C75.953621,145.355759 76.009384,138.914581 75.913589,132.475662 
	C75.890259,130.907013 75.908455,128.518204 74.987617,127.918091 
	C69.787422,124.529091 64.306953,121.570168 58.695770,118.334244 
	C58.058910,119.951881 57.651257,120.691200 57.473473,121.482170 
	C52.978451,141.481003 55.207512,160.802048 63.250729,179.571579 
	C64.598534,182.716766 66.242958,182.293793 68.670456,180.879288 
	C86.651619,170.401611 104.702515,160.043655 122.694206,149.583939 
	C135.942993,141.881607 142.471817,130.448166 142.264175,114.974205 
	C142.029449,97.480545 142.200378,79.981117 142.232544,62.484272 
	C142.259003,48.094650 142.315002,48.270054 128.198639,50.815723 
	C123.683197,51.630016 122.063141,53.501938 122.115623,58.056419 
	C122.309563,74.884537 122.192055,91.716240 122.191643,108.546600 
	C122.191597,110.300545 122.191635,112.054482 122.191635,114.191780 
	C120.836281,113.901993 120.138893,113.914421 119.617958,113.617386 
	C111.084724,108.751732 102.598053,103.803955 94.043381,98.976608 
	C91.389000,97.478752 91.300491,95.821190 93.365059,93.911880 
	C97.753555,89.853363 102.238846,85.899605 106.636124,81.850418 
	C107.815384,80.764503 109.701935,79.530174 109.758881,78.294624 
	C110.068008,71.587265 109.905663,64.858162 109.905663,57.581429 
	C108.016693,58.240154 106.898514,58.483665 105.919334,58.993923 
	C94.550537,64.918320 84.583900,72.628571 76.709930,82.792587 
	C74.143791,86.105057 71.943588,86.514679 68.374901,84.256447 
	C61.627071,79.986465 54.466759,76.367538 47.727283,72.085495 
	C44.198807,69.843620 42.402889,70.391533 40.249573,73.884216 
	C26.872869,95.581245 20.347383,119.011353 20.940466,144.574875 
	C21.878794,185.019470 39.249088,217.091171 70.457909,243.055222 
M200.025909,64.459427 
	C187.862381,56.468422 174.596146,51.600231 160.125671,49.715569 
	C156.062210,49.186337 154.876740,49.904346 154.913574,54.111179 
	C155.094528,74.773483 155.121887,95.439476 154.938797,116.101822 
	C154.808319,130.827713 161.041245,141.624985 173.738419,148.941025 
	C191.910324,159.411591 210.012634,170.002853 228.157486,180.520462 
	C229.262451,181.160950 230.479904,181.607361 232.343597,182.465897 
	C234.114014,177.663589 235.655899,173.162750 237.434830,168.757660 
	C238.829895,165.303162 237.800278,163.364319 234.573212,161.540741 
	C219.502563,153.024490 204.560837,144.279846 189.588226,135.590668 
	C188.112946,134.734497 186.741196,133.699905 184.612534,132.272934 
	C195.599716,125.987289 205.762375,120.173355 217.207748,113.625587 
	C218.911530,121.879250 220.332275,128.972961 221.869110,136.041412 
	C222.205399,137.588165 222.513184,139.742661 223.589905,140.425507 
	C229.021149,143.869995 234.702393,146.920242 240.455154,150.199585 
	C242.716949,139.709442 240.893311,122.823471 235.552399,109.502960 
	C233.749252,105.005821 234.827698,103.050911 238.774475,100.974182 
	C245.691269,97.334694 252.249176,93.015694 259.145508,89.333656 
	C262.745148,87.411766 263.278320,85.667877 261.292603,81.969513 
	C221.053467,7.024772 120.533882,-8.676353 59.374130,50.537735 
	C57.164288,52.677277 55.154354,55.023300 52.552666,57.806454 
	C57.403023,60.713989 61.599136,63.027248 65.570404,65.677437 
	C68.456558,67.603485 70.395210,67.223473 72.892448,64.779022 
	C114.192436,24.351957 179.787308,23.469091 222.095169,62.831116 
	C227.369614,67.738327 231.887039,73.459229 237.243271,79.338814 
	C215.940201,91.689133 195.752777,103.392662 174.915558,115.472908 
	C174.915558,101.039276 174.915558,87.662048 174.915558,72.597740 
	C181.546982,76.543839 187.124527,79.978737 192.831360,83.183395 
	C194.406631,84.067970 196.828278,85.216888 198.070496,84.614143 
	C203.256516,82.097824 208.141220,78.960556 214.175735,75.445534 
	C209.154968,71.528450 204.888062,68.199509 200.025909,64.459427 
z"/>
<path fill="#54ABE9" opacity="1.000000" stroke="none" 
	d="
M250.865112,175.713455 
	C257.468597,155.155777 258.008545,134.832504 252.715363,114.299805 
	C252.336166,112.828880 252.675034,110.161804 253.646622,109.524513 
	C258.469238,106.361145 263.616302,103.692368 269.824829,100.185150 
	C271.625122,108.114685 273.913696,115.223213 274.783051,122.501274 
	C280.939453,174.040771 263.610931,215.824539 221.565765,246.582901 
	C203.060425,260.120605 181.882797,267.377777 158.931122,269.062439 
	C153.625916,269.451813 148.297302,269.522827 142.979446,269.739624 
	C139.596359,269.877533 138.236618,268.273651 138.286331,264.883636 
	C138.408478,256.553619 138.200180,248.217880 138.379135,239.889923 
	C138.459808,236.135437 137.595795,234.323502 133.319199,233.729843 
	C120.981003,232.017044 109.522919,227.572845 98.995682,220.851669 
	C97.636276,219.983734 96.380409,218.953644 94.420715,217.518280 
	C100.739349,213.878677 106.357750,210.380600 112.253540,207.438400 
	C113.652061,206.740494 116.055931,207.672714 117.867805,208.256912 
	C124.290802,210.327820 130.657745,212.572617 137.862930,215.030197 
	C137.862930,202.282257 137.862930,190.809021 137.862930,178.522369 
	C135.347733,179.885773 133.337296,180.921051 131.378403,182.046112 
	C116.796661,190.421021 102.164513,198.711456 87.701233,207.286545 
	C84.787582,209.013977 83.019539,208.869339 81.026642,206.308975 
	C78.471443,203.026184 75.766716,199.858612 73.089684,196.672241 
	C71.411690,194.675018 71.647850,193.238693 73.991333,191.905258 
	C93.959167,180.543625 113.765533,168.890091 133.896744,157.827087 
	C143.944016,152.305634 154.661469,152.968735 164.551483,158.472366 
	C184.044220,169.319687 203.268738,180.648529 222.627670,191.737274 
	C224.650177,192.895752 225.867264,193.976028 224.114105,196.363235 
	C211.675354,213.300491 195.546646,225.010284 175.326233,230.950958 
	C174.887253,231.079910 174.355316,230.892456 173.085602,230.788895 
	C173.085602,224.587860 172.912155,218.351044 173.252701,212.142426 
	C173.310898,211.081345 175.456497,209.945633 176.825027,209.178436 
	C182.564697,205.960876 188.375565,202.870331 195.323914,199.102249 
	C182.601700,191.765945 171.315323,185.257645 159.267899,178.310471 
	C159.026779,180.477081 158.744308,181.842636 158.742386,183.208588 
	C158.714127,203.371597 158.781235,223.534958 158.673386,243.697433 
	C158.652298,247.638962 159.169296,249.277634 163.984497,248.433563 
	C206.835434,240.922165 235.422974,216.503571 250.865112,175.713455 
z"/>
<path fill="#F1C045" opacity="1.000000" stroke="none" 
	d="
M70.177231,242.835587 
	C39.249088,217.091171 21.878794,185.019470 20.940466,144.574875 
	C20.347383,119.011353 26.872869,95.581245 40.249573,73.884216 
	C42.402889,70.391533 44.198807,69.843620 47.727283,72.085495 
	C54.466759,76.367538 61.627071,79.986465 68.374901,84.256447 
	C71.943588,86.514679 74.143791,86.105057 76.709930,82.792587 
	C84.583900,72.628571 94.550537,64.918320 105.919334,58.993923 
	C106.898514,58.483665 108.016693,58.240154 109.905663,57.581429 
	C109.905663,64.858162 110.068008,71.587265 109.758881,78.294624 
	C109.701935,79.530174 107.815384,80.764503 106.636124,81.850418 
	C102.238846,85.899605 97.753555,89.853363 93.365059,93.911880 
	C91.300491,95.821190 91.389000,97.478752 94.043381,98.976608 
	C102.598053,103.803955 111.084724,108.751732 119.617958,113.617386 
	C120.138893,113.914421 120.836281,113.901993 122.191635,114.191780 
	C122.191635,112.054482 122.191597,110.300545 122.191643,108.546600 
	C122.192055,91.716240 122.309563,74.884537 122.115623,58.056419 
	C122.063141,53.501938 123.683197,51.630016 128.198639,50.815723 
	C142.315002,48.270054 142.259003,48.094650 142.232544,62.484272 
	C142.200378,79.981117 142.029449,97.480545 142.264175,114.974205 
	C142.471817,130.448166 135.942993,141.881607 122.694206,149.583939 
	C104.702515,160.043655 86.651619,170.401611 68.670456,180.879288 
	C66.242958,182.293793 64.598534,182.716766 63.250729,179.571579 
	C55.207512,160.802048 52.978451,141.481003 57.473473,121.482170 
	C57.651257,120.691200 58.058910,119.951881 58.695770,118.334244 
	C64.306953,121.570168 69.787422,124.529091 74.987617,127.918091 
	C75.908455,128.518204 75.890259,130.907013 75.913589,132.475662 
	C76.009384,138.914581 75.953621,145.355759 75.953621,153.449020 
	C88.393562,146.311417 99.786369,139.774628 111.720337,132.927353 
	C110.401390,131.776459 109.689751,130.924454 108.787300,130.402161 
	C90.919273,120.061234 72.984459,109.834610 55.180077,99.385651 
	C51.486706,97.218094 49.943680,97.770393 48.307407,101.787560 
	C24.643768,159.883575 57.832527,228.229202 118.097702,244.887207 
	C122.855232,246.202240 124.677162,248.200241 124.198441,253.095001 
	C123.765755,257.519043 124.107063,262.018768 124.107063,267.241119 
	C104.036583,262.806030 86.250359,255.191498 70.177231,242.835587 
z"/>
<path fill="#DF5F33" opacity="1.000000" stroke="none" 
	d="
M200.323517,64.664993 
	C204.888062,68.199509 209.154968,71.528450 214.175735,75.445534 
	C208.141220,78.960556 203.256516,82.097824 198.070496,84.614143 
	C196.828278,85.216888 194.406631,84.067970 192.831360,83.183395 
	C187.124527,79.978737 181.546982,76.543839 174.915558,72.597740 
	C174.915558,87.662048 174.915558,101.039276 174.915558,115.472908 
	C195.752777,103.392662 215.940201,91.689133 237.243271,79.338814 
	C231.887039,73.459229 227.369614,67.738327 222.095169,62.831116 
	C179.787308,23.469091 114.192436,24.351957 72.892448,64.779022 
	C70.395210,67.223473 68.456558,67.603485 65.570404,65.677437 
	C61.599136,63.027248 57.403023,60.713989 52.552666,57.806454 
	C55.154354,55.023300 57.164288,52.677277 59.374130,50.537735 
	C120.533882,-8.676353 221.053467,7.024772 261.292603,81.969513 
	C263.278320,85.667877 262.745148,87.411766 259.145508,89.333656 
	C252.249176,93.015694 245.691269,97.334694 238.774475,100.974182 
	C234.827698,103.050911 233.749252,105.005821 235.552399,109.502960 
	C240.893311,122.823471 242.716949,139.709442 240.455154,150.199585 
	C234.702393,146.920242 229.021149,143.869995 223.589905,140.425507 
	C222.513184,139.742661 222.205399,137.588165 221.869110,136.041412 
	C220.332275,128.972961 218.911530,121.879250 217.207748,113.625587 
	C205.762375,120.173355 195.599716,125.987289 184.612534,132.272934 
	C186.741196,133.699905 188.112946,134.734497 189.588226,135.590668 
	C204.560837,144.279846 219.502563,153.024490 234.573212,161.540741 
	C237.800278,163.364319 238.829895,165.303162 237.434830,168.757660 
	C235.655899,173.162750 234.114014,177.663589 232.343597,182.465897 
	C230.479904,181.607361 229.262451,181.160950 228.157486,180.520462 
	C210.012634,170.002853 191.910324,159.411591 173.738419,148.941025 
	C161.041245,141.624985 154.808319,130.827713 154.938797,116.101822 
	C155.121887,95.439476 155.094528,74.773483 154.913574,54.111179 
	C154.876740,49.904346 156.062210,49.186337 160.125671,49.715569 
	C174.596146,51.600231 187.862381,56.468422 200.323517,64.664993 
z"/>
</svg>